<mxfile host="app.diagrams.net" modified="2024-01-03T19:34:17.530Z" agent="Mozilla/5.0 (X11; Linux x86_64; rv:102.0) Gecko/20100101 Firefox/102.0" version="22.1.16" etag="9wnx4GwZn3uA1oPB6cPp" type="github">
  <diagram name="PÃ¡gina-1" id="VW0psl7SsAsIZURnIjER">
    <mxGraphModel>
      <root>
        <mxCell id="0" />
        <mxCell id="1" parent="0" />
      </root>
    </mxGraphModel>
  </diagram>
</mxfile>
